<mxfile host="65bd71144e">
    <diagram id="N-f_ZGy9DffFVG4SubH2" name="Page-1">
        <mxGraphModel dx="971" dy="672" grid="1" gridSize="10" guides="1" tooltips="1" connect="1" arrows="1" fold="1" page="1" pageScale="1" pageWidth="850" pageHeight="1100" math="0" shadow="0">
            <root>
                <mxCell id="0"/>
                <mxCell id="1" parent="0"/>
                <mxCell id="2" value="print_backend" style="swimlane;whiteSpace=wrap;html=1;fillColor=none;" parent="1" vertex="1">
                    <mxGeometry width="840" height="480" as="geometry"/>
                </mxCell>
                <mxCell id="8" value="" style="edgeStyle=none;html=1;" parent="2" edge="1">
                    <mxGeometry relative="1" as="geometry">
                        <mxPoint x="425" y="980" as="targetPoint"/>
                    </mxGeometry>
                </mxCell>
                <mxCell id="108" style="edgeStyle=none;html=1;entryX=0;entryY=1;entryDx=10;entryDy=0;entryPerimeter=0;fontColor=#0d0c0c;" edge="1" parent="2" source="93" target="80">
                    <mxGeometry relative="1" as="geometry"/>
                </mxCell>
                <mxCell id="93" value="Biometrics" style="shape=umlFrame;whiteSpace=wrap;html=1;width=85;height=30;" parent="2" vertex="1">
                    <mxGeometry x="40" y="270" width="350" height="170" as="geometry"/>
                </mxCell>
                <mxCell id="102" value="Validate&#10;biometrics" style="shape=module;align=left;spacingLeft=20;align=center;verticalAlign=top;fontSize=8;" parent="2" vertex="1">
                    <mxGeometry x="170" y="325" width="90" height="40" as="geometry"/>
                </mxCell>
                <mxCell id="87" value="" style="group" parent="2" vertex="1" connectable="0">
                    <mxGeometry x="40" y="40" width="340" height="180" as="geometry"/>
                </mxCell>
                <mxCell id="88" value="Connect ID" style="shape=umlFrame;whiteSpace=wrap;html=1;width=85;height=30;" parent="87" vertex="1">
                    <mxGeometry width="340" height="180" as="geometry"/>
                </mxCell>
                <mxCell id="104" value="" style="edgeStyle=none;html=1;fontSize=8;" parent="87" source="90" target="92" edge="1">
                    <mxGeometry relative="1" as="geometry"/>
                </mxCell>
                <mxCell id="90" value="Connect &#10; Internet Identity" style="shape=module;align=left;spacingLeft=20;align=center;verticalAlign=top;fontSize=8;" parent="87" vertex="1">
                    <mxGeometry x="113.33333333333333" y="24" width="102" height="48" as="geometry"/>
                </mxCell>
                <mxCell id="92" value="Validate&#10;Internet Identity" style="shape=module;align=left;spacingLeft=20;align=center;verticalAlign=top;fontSize=8;" parent="87" vertex="1">
                    <mxGeometry x="113.33333333333333" y="120" width="102" height="48" as="geometry"/>
                </mxCell>
                <mxCell id="105" value="" style="edgeStyle=none;html=1;fontSize=8;entryX=0.478;entryY=-0.026;entryDx=0;entryDy=0;entryPerimeter=0;" parent="2" source="88" target="93" edge="1">
                    <mxGeometry relative="1" as="geometry"/>
                </mxCell>
                <mxCell id="78" value="" style="group" parent="2" vertex="1" connectable="0">
                    <mxGeometry x="460" y="190" width="350" height="150" as="geometry"/>
                </mxCell>
                <mxCell id="84" value="Update user" style="shape=module;align=left;spacingLeft=20;align=center;verticalAlign=top;fontSize=8;" parent="78" vertex="1">
                    <mxGeometry x="100" y="10" width="90" height="40" as="geometry"/>
                </mxCell>
                <mxCell id="85" value="Read user" style="shape=module;align=left;spacingLeft=20;align=center;verticalAlign=top;fontSize=8;" parent="78" vertex="1">
                    <mxGeometry x="105" y="100" width="90" height="40" as="geometry"/>
                </mxCell>
                <mxCell id="86" value="Delete user" style="shape=module;align=left;spacingLeft=20;align=center;verticalAlign=top;fontSize=8;" parent="78" vertex="1">
                    <mxGeometry x="200" y="40" width="90" height="40" as="geometry"/>
                </mxCell>
                <mxCell id="79" value="User" style="shape=umlFrame;whiteSpace=wrap;html=1;width=85;height=30;" parent="78" vertex="1">
                    <mxGeometry width="300" height="150" as="geometry"/>
                </mxCell>
                <mxCell id="80" value="Create user" style="shape=module;align=left;spacingLeft=20;align=center;verticalAlign=top;fontSize=8;" parent="78" vertex="1">
                    <mxGeometry x="-30" y="60" width="90" height="40" as="geometry"/>
                </mxCell>
                <mxCell id="107" style="edgeStyle=none;html=1;entryX=0;entryY=0;entryDx=10;entryDy=0;entryPerimeter=0;fontColor=#0d0c0c;" edge="1" parent="2" source="88" target="80">
                    <mxGeometry relative="1" as="geometry"/>
                </mxCell>
            </root>
        </mxGraphModel>
    </diagram>
</mxfile>